HIERARCHY
ROOT Hips
{
	OFFSET -0.001795 -0.223333 0.028219
	CHANNELS 6 Xposition Yposition Zposition Zrotation Yrotation Xrotation 
	JOINT LeftUpLeg
	{
		OFFSET 0.069520 -0.091406 -0.006815
		CHANNELS 3 Zrotation Yrotation Xrotation
		JOINT LeftLeg
		{
			OFFSET 0.034277 -0.375199 -0.004496
			CHANNELS 3 Zrotation Yrotation Xrotation
			JOINT LeftFoot
			{
				OFFSET -0.013596 -0.397961 -0.043693
				CHANNELS 3 Zrotation Yrotation Xrotation
				JOINT LeftToe
				{
					OFFSET 0.026358 -0.055791 0.119288
					CHANNELS 3 Zrotation Yrotation Xrotation
					End Site
					{
						OFFSET 0.000000 0.000000 0.000000
					}
				}
			}
		}
	}
	JOINT RightUpLeg
	{
		OFFSET -0.067670 -0.090522 -0.004320
		CHANNELS 3 Zrotation Yrotation Xrotation
		JOINT RightLeg
		{
			OFFSET -0.038290 -0.382569 -0.008850
			CHANNELS 3 Zrotation Yrotation Xrotation
			JOINT RightFoot
			{
				OFFSET 0.015774 -0.398415 -0.042312
				CHANNELS 3 Zrotation Yrotation Xrotation
				JOINT RightToe
				{
					OFFSET -0.025372 -0.048144 0.123348
					CHANNELS 3 Zrotation Yrotation Xrotation
					End Site
					{
						OFFSET 0.000000 0.000000 0.000000
					}
				}
			}
		}
	}
	JOINT Spine
	{
		OFFSET -0.002533 0.108963 -0.026696
		CHANNELS 3 Zrotation Yrotation Xrotation
		JOINT Spine1
		{
			OFFSET 0.005487 0.135180 0.001092
			CHANNELS 3 Zrotation Yrotation Xrotation
			JOINT Spine2
			{
				OFFSET 0.001457 0.052922 0.025425
				CHANNELS 3 Zrotation Yrotation Xrotation
				JOINT Neck
				{
					OFFSET -0.002778 0.213870 -0.042857
					CHANNELS 3 Zrotation Yrotation Xrotation
					JOINT Head
					{
						OFFSET 0.005152 0.064970 0.051349
						CHANNELS 3 Zrotation Yrotation Xrotation
						End Site
						{
							OFFSET 0.000000 0.000000 0.000000
						}
					}
				}
				JOINT LeftShoulder
				{
					OFFSET 0.078845 0.121749 -0.034090
					CHANNELS 3 Zrotation Yrotation Xrotation
					JOINT LeftArm
					{
						OFFSET 0.090977 0.030469 -0.008868
						CHANNELS 3 Zrotation Yrotation Xrotation
						JOINT LeftForeArm
						{
							OFFSET 0.259612 -0.012772 -0.027456
							CHANNELS 3 Zrotation Yrotation Xrotation
							JOINT LeftHand
							{
								OFFSET 0.249234 0.008986 -0.001171
								CHANNELS 3 Zrotation Yrotation Xrotation
								End Site
								{
									OFFSET 0.000000 0.000000 0.000000
								}
							}
						}
					}
				}
				JOINT RightShoulder
				{
					OFFSET -0.081759 0.118833 -0.038615
					CHANNELS 3 Zrotation Yrotation Xrotation
					JOINT RightArm
					{
						OFFSET -0.096012 0.032551 -0.009143
						CHANNELS 3 Zrotation Yrotation Xrotation
						JOINT RightForeArm
						{
							OFFSET -0.253742 -0.013329 -0.021401
							CHANNELS 3 Zrotation Yrotation Xrotation
							JOINT RightHand
							{
								OFFSET -0.255298 0.007772 -0.005559
								CHANNELS 3 Zrotation Yrotation Xrotation
								End Site
								{
									OFFSET 0.000000 0.000000 0.000000
								}
							}
						}
					}
				}
			}
		}
	}
}
MOTION
Frames: 16
Frame Time: 0.050000
2.816061 0.898791 -0.189639 -1.630745 -57.434213 4.804103 12.780441 4.095651 -13.752435 -2.303218 6.708446 27.157844 3.298027 9.455192 -6.531865 0.000000 0.000000 0.000000 -13.384014 6.843002 -35.711971 13.096728 1.368336 19.517076 -16.507055 -35.331465 24.144357 0.000000 0.000000 0.000000 -2.285209 4.367826 28.572625 4.811403 -0.940846 4.689175 1.315384 -10.802426 11.156916 -5.258205 -0.026190 -27.428464 0.000000 0.000000 0.000000 -1.153991 -28.833442 14.581057 -21.119348 -42.446815 5.490503 65.247214 -36.597859 -16.138518 0.000000 0.000000 0.000000 8.018884 42.119264 10.011946 26.127137 27.799833 3.745327 -80.557651 76.524619 -81.078181 0.000000 0.000000 0.000000 
2.852394 0.904467 -0.181372 -1.699240 -56.661161 5.106815 11.475691 3.970346 -16.103151 -2.404920 6.756410 27.602002 2.872800 7.814056 -5.389459 0.000000 0.000000 0.000000 -15.033748 6.311792 -34.549860 11.791655 0.974521 15.128246 -15.831840 -34.162354 27.732062 0.000000 0.000000 0.000000 -2.419321 4.472757 28.975457 4.819084 -1.028746 4.414297 0.800380 -9.104560 11.106488 -4.324399 -0.212214 -25.682981 0.000000 0.000000 0.000000 -0.439215 -29.218927 14.071060 -20.487445 -40.863070 4.830243 70.828039 -39.550481 -19.828471 0.000000 0.000000 0.000000 5.312341 39.759433 9.820703 25.971237 29.962212 3.344909 -91.783885 70.148208 -84.993489 0.000000 0.000000 0.000000 
2.883004 0.910627 -0.174886 -0.664015 -55.295495 3.488031 9.358540 3.264536 -17.378059 -2.356449 6.683597 28.077100 3.101807 7.678118 -3.691508 0.000000 0.000000 0.000000 -15.926032 5.549313 -32.390444 10.260618 0.858980 14.036121 -13.055205 -31.262810 25.993783 0.000000 0.000000 0.000000 -2.267142 4.795326 30.601596 4.653762 -0.924514 5.530109 0.636096 -8.537301 9.916241 -3.863265 -0.131716 -24.081351 0.000000 0.000000 0.000000 0.944193 -29.330183 13.086440 -19.585439 -37.301764 3.822782 78.595067 -38.629091 -22.003041 0.000000 0.000000 0.000000 1.545949 38.161872 9.929356 22.875421 31.968893 2.439558 -88.895929 61.311294 -72.245758 0.000000 0.000000 0.000000 
2.906995 0.916465 -0.171724 -0.599636 -52.991370 3.524261 7.795271 2.794170 -19.001113 -2.577646 6.312759 27.827773 3.236475 7.498217 -2.705592 0.000000 0.000000 0.000000 -17.426943 5.057233 -31.312172 11.166928 0.787859 15.282517 -12.412727 -30.427899 25.210140 0.000000 0.000000 0.000000 -2.272921 4.413719 30.235390 4.433727 -0.802867 6.271208 1.229702 -6.657946 9.315151 -4.681485 0.785787 -21.486868 0.000000 0.000000 0.000000 0.883641 -29.322713 12.767887 -15.781027 -32.700364 1.860069 83.015082 -34.941093 -21.072925 0.000000 0.000000 0.000000 -2.703521 35.066189 9.622703 18.765693 33.611035 1.133170 -84.137419 52.993877 -58.262665 0.000000 0.000000 0.000000 
2.924946 0.922521 -0.171286 -0.693144 -51.037046 4.231199 6.553185 2.291032 -19.682926 -2.935770 5.417512 25.461259 3.164213 7.238193 -2.461492 0.000000 0.000000 0.000000 -17.627886 5.138893 -32.721201 12.358952 1.401136 24.218790 -11.351023 -29.344813 21.546238 0.000000 0.000000 0.000000 -1.661999 3.810100 29.455553 3.663923 -0.558756 5.970721 1.590515 -4.837143 10.577855 -4.219621 0.850396 -19.073009 0.000000 0.000000 0.000000 6.887692 -27.272853 9.016839 -14.832909 -30.126037 1.629678 79.871184 -27.548422 -13.399705 0.000000 0.000000 0.000000 -9.523965 31.070243 9.178237 15.143096 36.019268 -0.490318 -80.020342 44.032422 -46.522258 0.000000 0.000000 0.000000 
2.938450 0.927027 -0.172766 0.038069 -48.768742 4.464773 5.186047 1.730331 -20.331389 -1.942333 4.012010 23.256163 2.375069 5.235770 -0.911812 0.000000 0.000000 0.000000 -16.531877 4.949972 -32.701641 12.703734 2.195339 31.674430 -9.838156 -26.971379 16.772959 0.000000 0.000000 0.000000 -0.942114 2.982527 27.942408 3.867629 -0.379107 8.066796 0.700620 -3.477410 9.404103 -3.330566 0.792017 -16.460350 0.000000 0.000000 0.000000 12.349557 -26.224052 6.442085 -10.080540 -25.656885 0.525047 71.836648 -18.974321 -5.756141 0.000000 0.000000 0.000000 -13.472069 29.340950 8.932804 7.310084 33.574476 -2.243810 -71.358050 36.757336 -33.325795 0.000000 0.000000 0.000000 
2.948136 0.930649 -0.175647 0.726278 -46.142583 4.983390 4.891735 1.519905 -21.042070 -2.707425 3.447439 20.859918 2.007865 4.143691 0.858239 0.000000 0.000000 0.000000 -15.322669 4.385710 -30.664090 11.095773 2.886006 34.689314 -8.607642 -24.476603 13.559602 0.000000 0.000000 0.000000 0.227949 2.361426 27.645796 3.824939 -0.599862 7.106585 0.332187 -2.042695 10.087718 -2.828471 0.801662 -14.259160 0.000000 0.000000 0.000000 19.195835 -22.789702 3.210575 -5.714540 -25.533950 0.220277 57.995872 -11.210243 -0.515160 0.000000 0.000000 0.000000 -17.652319 27.389008 8.502273 2.037957 31.382467 -3.256688 -62.433683 30.816217 -23.704719 0.000000 0.000000 0.000000 
2.954862 0.933718 -0.180013 1.576965 -44.691540 5.219799 3.853659 1.224288 -22.060749 -2.290195 2.770601 19.253269 1.601115 2.992883 4.155167 0.000000 0.000000 0.000000 -14.709423 3.936604 -28.629262 8.175862 2.987575 31.747892 -7.268263 -21.783377 11.643026 0.000000 0.000000 0.000000 0.130921 2.198626 27.299889 3.098125 -0.371600 6.590577 2.234918 -0.643408 9.573056 -3.306786 1.341352 -13.268694 0.000000 0.000000 0.000000 21.640118 -20.702695 2.200893 -2.600791 -22.711085 -0.240588 46.990851 -8.157180 0.477327 0.000000 0.000000 0.000000 -19.817811 27.542640 8.322045 -1.008909 28.500036 -3.369484 -55.181754 27.847625 -18.187390 0.000000 0.000000 0.000000 
2.959344 0.933847 -0.185411 2.487247 -43.119117 5.337511 3.126642 0.993509 -22.854750 -2.254407 2.464003 18.442337 0.897889 1.710380 4.591121 0.000000 0.000000 0.000000 -14.804719 3.635949 -27.464578 7.025479 2.467413 28.236074 -7.254780 -21.333316 10.654499 0.000000 0.000000 0.000000 0.455140 1.927352 26.960423 2.873475 -0.441775 5.645870 3.197976 0.705539 9.974151 -3.713670 1.825854 -12.037538 0.000000 0.000000 0.000000 23.278290 -18.009911 1.403105 -0.844754 -20.846154 -0.434291 38.828951 -9.792242 -0.358776 0.000000 0.000000 0.000000 -20.347330 27.169078 8.066651 -3.509039 26.976241 -3.519634 -50.892850 27.208591 -15.691710 0.000000 0.000000 0.000000 
2.962224 0.934059 -0.191617 3.158829 -42.032717 5.181625 2.756420 0.958500 -24.085493 -2.456725 2.508258 18.823118 0.705484 1.379504 5.416515 0.000000 0.000000 0.000000 -14.942943 3.439170 -26.721186 6.055395 2.029868 24.960868 -6.158999 -19.727620 11.368821 0.000000 0.000000 0.000000 0.466991 1.916776 27.281052 2.984611 -0.641454 4.832465 4.264806 2.016145 10.306847 -4.438694 2.514857 -11.075688 0.000000 0.000000 0.000000 24.085349 -15.865934 1.003779 -1.483084 -19.276925 -0.471282 35.097371 -11.715810 -0.951468 0.000000 0.000000 0.000000 -21.547156 27.156051 7.780259 -4.565311 27.154302 -3.672522 -47.625699 25.033223 -13.057820 0.000000 0.000000 0.000000 
2.964138 0.934521 -0.197136 3.852926 -41.161689 5.283774 2.573201 1.000409 -25.283811 -2.000832 2.258698 18.853772 -0.007369 0.169008 6.241196 0.000000 0.000000 0.000000 -15.007142 3.296234 -26.047062 5.049253 1.741654 22.210510 -6.423148 -20.215073 11.874066 0.000000 0.000000 0.000000 0.850280 1.758770 27.331973 2.813640 -0.637052 4.324606 4.919114 2.563195 10.387636 -3.940853 2.297935 -10.026114 0.000000 0.000000 0.000000 23.070728 -14.296837 0.987738 -1.895920 -18.241560 -0.513229 36.684211 -15.064181 -1.924889 0.000000 0.000000 0.000000 -21.674909 27.336290 7.676973 -6.018334 27.516146 -3.981557 -45.501376 23.645531 -11.499631 0.000000 0.000000 0.000000 
2.965477 0.935599 -0.201396 4.007580 -39.943634 5.345261 2.206252 0.843184 -25.704088 -1.783541 1.923970 17.862912 -0.736317 -0.989348 7.192322 0.000000 0.000000 0.000000 -15.121601 3.091439 -25.090896 5.148822 1.395537 20.370173 -6.341298 -20.207448 12.663575 0.000000 0.000000 0.000000 1.385638 1.622013 27.932850 3.191959 -0.834987 4.516789 5.022576 3.612038 10.085346 -3.284476 1.960885 -10.118216 0.000000 0.000000 0.000000 22.827412 -12.738358 1.000529 -2.321241 -17.963492 -0.553849 39.960920 -18.311383 -3.265995 0.000000 0.000000 0.000000 -22.902200 26.886658 7.279028 -5.581025 27.561904 -3.752487 -44.767061 22.291668 -10.378117 0.000000 0.000000 0.000000 
2.966224 0.936283 -0.204074 4.133778 -39.035660 5.426631 2.122958 0.743726 -25.753464 -1.479362 1.630726 17.015482 -0.916648 -1.247133 7.490545 0.000000 0.000000 0.000000 -14.989614 2.940722 -24.312781 5.073366 1.120629 18.462695 -6.651303 -20.654655 12.938139 0.000000 0.000000 0.000000 2.084060 1.418444 28.340965 3.086725 -0.835468 4.303616 5.307358 3.766061 10.050901 -2.477533 1.452300 -9.859298 0.000000 0.000000 0.000000 20.613575 -12.296494 1.310926 -2.146503 -16.999549 -0.608867 46.113314 -21.637129 -5.179792 0.000000 0.000000 0.000000 -22.410501 26.835341 7.201417 -6.379716 27.520343 -3.831195 -44.771297 22.857926 -10.474943 0.000000 0.000000 0.000000 
2.966507 0.936860 -0.205739 4.080652 -38.989932 5.352671 2.131495 0.725080 -25.608921 -1.403682 1.457103 15.976683 -1.251480 -1.716469 8.647698 0.000000 0.000000 0.000000 -15.022571 2.853681 -23.556551 5.673761 0.912415 17.457762 -6.978358 -21.121646 13.208804 0.000000 0.000000 0.000000 2.656114 1.406633 29.272584 2.822936 -0.788840 3.632901 5.099530 4.468619 10.473661 -1.984924 1.144958 -10.581119 0.000000 0.000000 0.000000 19.539346 -12.001072 1.474467 -2.226508 -17.005261 -0.637859 51.527915 -23.212476 -6.770071 0.000000 0.000000 0.000000 -22.580745 26.321030 6.967173 -7.094778 27.681419 -3.920757 -44.068731 22.201377 -9.859104 0.000000 0.000000 0.000000 
2.966183 0.936633 -0.206860 4.014403 -39.123287 5.293166 2.280303 0.788100 -25.672463 -1.511807 1.439235 15.544974 -1.091526 -1.461547 8.687907 0.000000 0.000000 0.000000 -14.554687 2.826168 -23.241937 5.523474 0.897801 17.035476 -7.041304 -21.101579 12.884883 0.000000 0.000000 0.000000 2.837298 1.486520 29.972487 2.710820 -0.730170 3.790787 4.753904 4.558564 10.677985 -1.968490 1.135843 -11.062419 0.000000 0.000000 0.000000 19.461092 -11.776193 1.446604 -2.442620 -17.052592 -0.640075 56.337388 -22.359274 -7.136647 0.000000 0.000000 0.000000 -23.314990 26.098333 6.829807 -8.353317 27.376145 -4.091213 -43.612115 20.499699 -9.008951 0.000000 0.000000 0.000000 
2.965139 0.936258 -0.207695 3.968298 -39.612386 5.341963 2.686606 0.928642 -25.461542 -1.687903 1.443124 14.938487 -0.720742 -0.847367 9.355369 0.000000 0.000000 0.000000 -14.114083 2.842521 -23.102714 5.843658 0.852300 16.784049 -7.196290 -21.294902 12.742830 0.000000 0.000000 0.000000 3.013199 1.613254 30.710750 2.577448 -0.751926 2.850318 4.230231 4.841217 11.672418 -1.517285 0.824019 -10.786110 0.000000 0.000000 0.000000 19.467972 -12.549272 1.551327 -1.808854 -17.425751 -0.657095 58.662763 -20.774953 -6.758744 0.000000 0.000000 0.000000 -23.996743 26.153069 6.697203 -10.508412 27.070786 -4.449789 -41.380833 18.735452 -7.761905 0.000000 0.000000 0.000000 
